<?xml version="1.0" encoding="utf-8"?><svg xmlns="http://www.w3.org/2000/svg" xmlns:xlink="http://www.w3.org/1999/xlink"><symbol id="ico-man" viewBox="0 0 27.52 47.1" xmlns="http://www.w3.org/2000/svg"><defs><style>.acls-1{fill:#d3dee1}.acls-3{fill:#f3d0c0}.acls-6{fill:#292929}.acls-7{fill:#fdc9bc}.acls-8{fill:#fff}.acls-10{fill:#ff715b}</style></defs><path class="acls-1" d="M15.89 36.65l-.49-10.44-.93-.14.85 10.32.57.26z"/><path d="M27.43 45l-3.64-2.86c2.14-.89-1.3-1.19-1.3-2.57 0-2.69-5-4.86-11.25-4.86S0 36.89 0 39.58s5 4.86 11.24 4.86h.84l13.44 2.41z" opacity=".51" fill="#d3dee1"/><path class="acls-1" d="M9.35 14.12c-.13-3.24-5.29-4.52-8-.44-.6.91-1.35 1.5-.48 7.67s.54 8.12 4.13 9.36 7.73 3.09 10.41 1.48c1.13-.68 6.47-3 5.94-5.1-.74-2.94-10.08-4.59-10.08-4.59z"/><path class="acls-3" d="M23.59 41.62l.2.53a1.66 1.66 0 0 0 .45.66l1.68 1.55c1 1 1.91.8.88-.6l-2.11-2.41z"/><path d="M12.08 22.66s-2.64-1-3.69.6.55 3.9 4.09 6c2.39 1.45 6.05-.27 8.67 1 .77 4.27.32 7.35 2.41 11.67l1.66-.18c-1.47-5.33-.48-11.65-1.72-13.43-3.33-2.86-6.96-4.27-11.42-5.66z" fill="#767fd7"/><path class="acls-3" d="M22.64 42.19s.83 1.69 1 1.91 2 2.27 1.88 2.73-2.71-1.7-3.17-2.43a18.09 18.09 0 0 1-1.06-2.21z"/><path d="M9.69 23.81s-5.62-.39-6.46 1.47.95 3.8 4.62 5.14c2.47.9 5.92.92 8.59 1.54a44.57 44.57 0 0 0 5.36 11.89l1.63-.63c-2-5-3.52-12.25-4.91-13.75z" fill="#7f93fd"/><path class="acls-1" d="M12.65 43.24l-.49-10.44-.93-.14.86 10.33.56.25zm-7.62-2.81l1-9.35-1.04-.37-.54 9.4.58.32z"/><path class="acls-6" d="M22.19 44.13c.87.33 1.27.46 1.34-.21 0 0 2.23 2.29 2.14 2.79s-.46.38-.55.36c-.71-.17-2.85-2.15-2.93-2.94zm1.6-1.98c.86.37 1.82.92 1.58 0 0 0 2.65 2.31 2.06 2.88-.89.85-3.73-2.41-3.64-2.88z"/><path class="acls-7" d="M8.84 9.21c1.37-.24 3.48 4 5.2 8.2A13.9 13.9 0 0 0 18.69 19a20.84 20.84 0 0 1 2.83.27l-2.27.51s-5.33-.1-6.6-1.52-2.3-8-2.3-8z"/><path class="acls-8" d="M10.27 10.24c-1.71.83-.78 5.93.12 6.82.66.64 1.41-1.29 2.28-1.75a.35.35 0 0 1 .46.13l.25.4.45-.15A15.59 15.59 0 0 0 11.58 11c-.49-.68-.76-1-1.31-.76z"/><path class="acls-8" d="M3.17 27s2.89 2.89 8.48-1c2.43-1.68 2.15-4.42 1.86-7.24a20.09 20.09 0 0 0-1.78-6.41s-.55-1-1.13-2.14a3 3 0 0 0-2.45-1.47c-1 0-1.33-.76-2.38 0-1.52 1.12-2.89 3.42-3.06 7.51C2.3 25.74 3.17 27 3.17 27z"/><path class="acls-7" d="M5.76 8.63c-.34 1 5.05 3.28 4.38 1.14A5.1 5.1 0 0 0 8.49 8.4c-1.49-.46-1.73-.67-2.73.23z"/><path class="acls-7" d="M9.29 2.82s1.91 5.39.53 5.8c-1.77.53-2.63.47-3.45.12S4 3.8 4 3.8z"/><path class="acls-6" d="M7.43 5.29a2.36 2.36 0 0 1 .91-.89 9.37 9.37 0 0 0 1-.68c1-.77.93-4.93-.61-3.37a4 4 0 0 1-3.22 1.22 3 3 0 0 0-2.24 2.91c.21.92-.39.8.65 2.05.5.6-.22.84.53 1.62a1.11 1.11 0 0 0 1.87-.69c-.11-.65.26-.7.87-1.75z"/><path class="acls-10" d="M8.84 11.12c-.41 5 2.76 9.11 2.27 16.19-.88 1-5.2 2.61-8.63 1.41-1-12.09.25-18.6 3.31-20.15-.31.76 1.13 2.02 3.05 2.55zm6.51 14.25C13.62 15.85 11.51 10 9.63 9.2c.74.48 1.08 1.22.83 1.45 2.24 2.49 2.51 8.72 3.22 15.51z"/><path d="M15.65 23.12s-6.12 1.36-6.52 1.59-.57.72.48 1.34 4.84 2.89 5.91 2.65 6.36-3.38 6.36-3.38z" fill="#c9ced0"/><path class="acls-7" d="M5 13.31s.79 6.53 1.61 8.31 6.49 2.13 7.42 2.11a7.78 7.78 0 0 1 2.35.52c1.65.2 1.16-.9-2.28-1.49-1-.17-5.46-1.41-5.61-1.93s-1-7-1-7c-.31-1.94-2.25-2.38-2.49-.52z"/><path class="acls-1" d="M16.91 19.72l5.94-1.91s2.44-.19 2.25 1.7a27.7 27.7 0 0 1-1 4.72 3.25 3.25 0 0 1-1.81 2c-2 .86-6.13 2.57-6.78 2.49a2 2 0 0 1-1.84-2.54c.27-1.94.78-5.91 3.24-6.46z"/><path class="acls-8" d="M5.65 11.13c-2.22.61-2.2 6.72-1.31 7.93.25.35 1.13.27 1.55 0V19a.48.48 0 0 1 .17-.37 5.13 5.13 0 0 1 1.52-1 .36.36 0 0 1 .44.31l.06.37.62-.45c.02-.51-.58-7.41-3.05-6.73z"/></symbol><symbol id="ico-puddles" xml:space="preserve" viewBox="0 0 173.62 219.24" xmlns="http://www.w3.org/2000/svg"><style>.bst3{opacity:.51;fill:#d6dde1}</style><path class="bst3" d="M6.164 0c-.555 1.747-1.44 3.818-2.736 6.35-9.931 19.389 3.236 31.129 20.061 16.274C34.854 12.589 31.637 7.245 28.789 0H6.164zm160.949 37.129a98.905 98.905 0 0 0-4.014-2.913c-10.389-7.148-21.752-12.091-30.908-8.87-23.13 8.135-72.166 36.028-74.212 82.369-2.045 46.34-36.802 20.217-46.705 28.766-9.903 8.548-11.83 54.279 35.536 59.764 47.366 5.485 89.093 22.99 97.237-21.668 4.733-25.956 13.123-35.938 23.065-42.922V37.129z"/></symbol><symbol id="ico-sheets" xml:space="preserve" viewBox="0 0 140.13 114.61" xmlns="http://www.w3.org/2000/svg"><style>.cst3{fill:#d6dde1}.cst5{fill:#fff}.cst7{opacity:.51;fill:#d6dde1}</style><path class="cst3" d="M110.427 36.625l-.466-13.936c5.047 1.893 10.363 5.292 11.176 11.084l-.032 16.116c-.278-3.528-3.387-10.292-10.678-13.264z"/><path d="M113.205 34.86l-.338-6.931c3.665 1.374 7.525 5.581 8.114 9.787l-.023 6.775c-.203-2.562-2.398-6.542-7.753-9.631z" fill="#8492fb"/><path class="cst5" d="M106.178 45.942l.116 16.295c7.447-1.061 13.44-2.756 15.101-10.632l-.258-17.631c-.776 7.017-5.887 11.218-14.959 11.968z"/><path d="M109.815 49.015l.058 8.796c3.2-.372 7.947-2.628 9.362-6.672l-.129-6.885c-2.35 2.806-5.559 3.855-9.291 4.761z" fill="#ff715c"/><path class="cst5" d="M84.448 88.58l.266 26.034c27.227 0 49.145-3.824 55.316-16.406l-.007-31.935c-2.884 11.209-21.871 21.109-55.575 22.307z"/><path class="cst3" d="M.335 87.715c.471-6.068 1.283-12.019 5.903-16.661V46.943C2.281 53.08-.097 60.137.003 68.636l.332 19.079z"/><path class="cst5" d="M25.717 110.42C12.86 106.516 1.642 98.245.301 87.588L.003 67.674c1.118 9.779 10.433 19.997 25.45 25.102l.264 17.644z"/><path class="cst7" d="M12.86 100.634c-3.757-1.896-8.253-6.278-10.13-12.086l-.119-7.643c2.712 5.55 6.075 8.004 10.143 10.389l.106 9.34z"/><path class="cst3" d="M63.376 5.638c-4.051-.114-7.637 1.194-11.09 2.904l-.043-5.638C56.259 1.17 60.025.035 63.333 0l.043 5.638z"/><path class="cst7" d="M124.717 106.33V86.023c-.82.291-1.665.568-2.534.83v20.252a65.775 65.775 0 0 0 2.534-.775zm-4.819 1.33V87.894a72.97 72.97 0 0 1-2.534.612v19.729c.864-.183 1.71-.374 2.534-.575zm-4.754 1.163V89.358c-.829.162-1.675.314-2.534.458v19.45c.86-.139 1.705-.288 2.534-.443zm-4.819.888V90.373c-.832.121-1.677.234-2.534.34v19.334c.857-.105 1.703-.217 2.534-.336zm-5.204.542V91.217c-.835.086-1.679.166-2.534.24v19.038c.855-.074 1.7-.155 2.534-.242zm-4.819.619V91.939c-.836.06-1.681.114-2.534.163v18.937c.854-.05 1.699-.106 2.534-.167zm-5.011.298V92.384c-.838.037-1.683.07-2.534.098v18.788c.853-.028 1.697-.061 2.534-.1zm-4.819.214V92.316c-.839.019-1.684.034-2.534.045v19.064c.852-.009 1.697-.022 2.534-.041zm41.822-28.636l.138 3.329-3.659.495c.303 2.503 4.209 3.741 5.942 1.733 2.228-2.559.165-5.75-2.421-5.557zm0 11.551l.138 3.329-3.659.495c.303 2.503 4.209 3.741 5.942 1.733 2.228-2.559.165-5.75-2.421-5.557zM18.79 96.124l.138 3.329-3.659.495c.303 2.503 4.209 3.741 5.942 1.733 2.229-2.559.165-5.75-2.421-5.557z"/></symbol><symbol viewBox="0 0 9.64 11.59" id="ico-small-plane" xmlns="http://www.w3.org/2000/svg"><path fill="#ff715b" d="M0 0l3.78.31 1.41 1.01 1.14-.8L9.64.8 4.4 11.59 0 0z"/><path fill="#ff5f4e" d="M4.4 11.59L6.33.52l-1.14.8L3.78.31l.62 11.28z"/></symbol></svg>