<?xml version="1.0" encoding="UTF-8" standalone="no"?>
<svg
   xmlns:dc="http://purl.org/dc/elements/1.1/"
   xmlns:cc="http://creativecommons.org/ns#"
   xmlns:rdf="http://www.w3.org/1999/02/22-rdf-syntax-ns#"
   xmlns:svg="http://www.w3.org/2000/svg"
   xmlns="http://www.w3.org/2000/svg"
   id="svg3881"
   version="1.1"
   viewBox="0 0 188.66554 112.99613"
   height="112.99613mm"
   width="188.66554mm">
  <defs
     id="defs3875" />
  <metadata
     id="metadata3878">
    <rdf:RDF>
      <cc:Work
         rdf:about="">
        <dc:format>image/svg+xml</dc:format>
        <dc:type
           rdf:resource="http://purl.org/dc/dcmitype/StillImage" />
        <dc:title></dc:title>
      </cc:Work>
    </rdf:RDF>
  </metadata>
  <g
     transform="translate(-9.2327009,-6.1566995)"
     id="layer1">
    <path
       id="path46"
       style="fill:#000;fill-opacity:1;fill-rule:nonzero;stroke:none;stroke-width:0.03527778"
       d="m 26.980245,28.06561 c 5.099755,-2.413 6.110816,-4.46758 6.689372,-6.04379 2.561167,4.72334 5.542138,12.63438 0.3175,19.8053 -1.907117,2.59221 -3.620911,4.23862 -5.243689,5.83706 -1.360664,1.3402 -2.70898,2.89771 -3.364441,4.96111 -0.600428,1.89089 -0.159809,3.45546 -0.286456,3.39513 -1.955447,-0.92851 -4.424186,-2.90583 -5.369983,-5.02602 -0.893233,-1.68099 -1.04528,-4.15219 -0.473428,-5.87834 1.103136,-3.33022 4.728986,-6.56449 10.234789,-9.21702 0.213077,-0.10266 0.413808,-0.22825 0.684036,-0.37783 -1.727553,0.13829 -11.259608,2.89137 -13.728699,10.42988 -1.709562,-1.73285 -3.732036,-4.61963 -4.502503,-8.642 -1.391356,-7.26228 1.123597,-11.56335 4.386791,-15.32255 2.00272,-2.30364 3.617383,-3.81176 5.217583,-6.60929 1.242484,-2.17241 2.357967,-4.70288 1.569861,-9.2205505 8.653992,6.4297305 9.708445,12.2706705 7.390695,16.4186305 -0.939448,1.68134 -2.635956,3.06916 -4.386086,4.13738 -4.418542,2.81622 -6.377164,3.99767 -8.005939,6.66714 0.07655,0.0593 2.122664,-2.22849 8.870597,-5.31424" />
    <path
       id="path48"
       style="fill:#000;fill-opacity:1;fill-rule:nonzero;stroke:none;stroke-width:0.03527778"
       d="m 28.4224,57.27808 c 0,0 -1.785408,6.83718 -4.214636,18.61008 -2.42958,-11.7729 -4.214988,-18.61008 -4.214988,-18.61008 H 9.2327009 c 0,0 9.7892311,27.53889 9.7892311,61.87475 h 10.371666 c 0,-34.91795 9.789936,-61.87475 9.789936,-61.87475 H 28.4224" />
    <path
       id="path50"
       style="fill:#000;fill-opacity:1;fill-rule:nonzero;stroke:none;stroke-width:0.03527778"
       d="M 96.012505,88.00255 V 76.17038 h 8.978195 v 3.12209 h -5.393975 v 1.17122 h 5.266975 v 3.12208 h -5.266975 v 1.2947 h 5.393975 v 3.12208 h -8.978195" />
    <path
       id="path52"
       style="fill:#000;fill-opacity:1;fill-rule:nonzero;stroke:none;stroke-width:0.03527778"
       d="m 64.661145,88.00255 v -4.70253 l -4.437944,-7.12964 h 4.02872 l 2.201334,3.98992 2.162527,-3.98992 h 4.028723 l -4.402667,7.12964 v 4.70253 h -3.580693" />
    <path
       id="path54"
       style="fill:#000;fill-opacity:1;fill-rule:nonzero;stroke:none;stroke-width:0.03527778"
       d="m 72.870282,84.12552 v -3.12914 h 6.589889 v 3.12914 h -6.589889" />
    <path
       id="path56"
       style="fill:#000;fill-opacity:1;fill-rule:nonzero;stroke:none;stroke-width:0.03527778"
       d="m 82.137755,82.09352 c 0,-3.79589 3.550954,-5.79603 6.512277,-6.12069 2.002684,-0.21957 4.452056,1.5628 5.196416,3.0868 l -3.01625,1.54517 c -0.335137,-0.72672 -1.114777,-1.47461 -2.180166,-1.47461 -1.721554,0 -2.875137,1.31586 -2.875137,2.96333 0,1.651 1.153583,2.96334 2.875137,2.96334 0.673806,0 1.471083,-0.24695 1.845029,-0.5327 v -0.42333 h -2.201333 v -3.12209 h 5.767917 v 4.84364 c -1.312334,1.45345 -3.086807,2.39184 -5.411613,2.39184 -3.584221,0 -6.512277,-2.33892 -6.512277,-6.1207" />
    <path
       id="path58"
       style="fill:#000;fill-opacity:1;fill-rule:nonzero;stroke:none;stroke-width:0.03527778"
       d="m 114.88964,88.00255 -4.36739,-5.99722 v 5.99722 h -3.58422 V 76.17038 h 3.69358 l 4.11339,5.60564 v -5.60564 h 3.58422 v 11.83217 h -3.43958" />
    <path
       id="path60"
       style="fill:#000;fill-opacity:1;fill-rule:nonzero;stroke:none;stroke-width:0.03527778"
       d="M 120.24481,88.00255 V 76.17038 h 8.97819 v 3.12209 h -5.39397 v 1.17122 h 5.2705 v 3.12208 h -5.2705 v 1.2947 h 5.39397 v 3.12208 h -8.97819" />
    <path
       id="path62"
       style="fill:#000;fill-opacity:1;fill-rule:nonzero;stroke:none;stroke-width:0.03527778"
       d="m 138.10947,80.21322 c 0,-0.63853 -0.56444,-0.92075 -1.16769,-0.92075 h -2.1837 v 1.86266 h 2.1837 c 0.60325,0 1.16769,-0.28575 1.16769,-0.94191 z m -0.42333,7.78933 -1.63336,-3.72533 h -1.2947 v 3.72533 h -3.58422 V 76.17038 h 6.31472 c 2.76931,0 4.25803,1.84503 4.25803,4.06048 0,2.04258 -1.18533,3.12208 -2.12725,3.58422 l 2.14842,4.18747 h -4.08164" />
    <path
       id="path64"
       style="fill:#000;fill-opacity:1;fill-rule:nonzero;stroke:none;stroke-width:0.03527778"
       d="m 149.25372,79.68052 -1.17122,3.81706 h 2.34245 z m 2.55411,8.32203 -0.42686,-1.38289 h -4.25802 l -0.42687,1.38289 h -4.06047 l 4.36386,-11.83217 h 4.50498 l 4.36738,11.83217 h -4.064" />
    <path
       id="path66"
       style="fill:#000;fill-opacity:1;fill-rule:nonzero;stroke:none;stroke-width:0.03527778"
       d="m 158.33422,88.00255 v -8.71008 h -3.175 v -3.12209 h 9.92011 v 3.12209 h -3.16088 v 8.71008 h -3.58423" />
    <path
       id="path68"
       style="fill:#000;fill-opacity:1;fill-rule:nonzero;stroke:none;stroke-width:0.03527778"
       d="M 166.70917,88.00255 V 76.17038 h 3.58422 v 11.83217 h -3.58422" />
    <path
       id="path70"
       style="fill:#000;fill-opacity:1;fill-rule:nonzero;stroke:none;stroke-width:0.03527778"
       d="m 181.24008,82.09352 c 0,-1.64747 -1.1183,-2.96333 -2.83986,-2.96333 -1.72155,0 -2.83986,1.31586 -2.83986,2.96333 0,1.651 1.11831,2.96334 2.83986,2.96334 1.72156,0 2.83986,-1.31234 2.83986,-2.96334 z m -9.31686,0 c 0,-3.63714 2.82222,-6.12069 6.477,-6.12069 3.65478,0 6.477,2.48355 6.477,6.12069 0,3.63714 -2.82222,6.1207 -6.477,6.1207 -3.65478,0 -6.477,-2.48356 -6.477,-6.1207" />
    <path
       id="path72"
       style="fill:#000;fill-opacity:1;fill-rule:nonzero;stroke:none;stroke-width:0.03527778"
       d="m 194.45514,88.00255 -4.36386,-5.99722 v 5.99722 h -3.58422 V 76.17038 h 3.69005 l 4.11692,5.60564 v -5.60564 h 3.58422 v 11.83217 h -3.44311" />
  </g>
</svg>
