<svg xmlns="http://www.w3.org/2000/svg" width="129" height="95"><path d="M14.731 18.33c4.232-2.02 5.073-3.738 5.553-5.057 2.125 3.952 4.6 10.57.262 16.57-1.583 2.17-3.005 3.547-4.351 4.884-1.13 1.12-2.249 2.424-2.793 4.15-.499 1.582-.133 2.89-.238 2.84-1.623-.776-3.672-2.43-4.457-4.204-.742-1.407-.868-3.474-.393-4.918.915-2.787 3.925-5.492 8.495-7.711.177-.086.344-.192.568-.317-1.434.116-9.346 2.42-11.396 8.726a14.137 14.137 0 0 1-3.737-7.23c-1.154-6.075.933-9.674 3.641-12.819 1.663-1.927 3.003-3.19 4.332-5.53C11.248 5.897 12.173 3.78 11.519 0c7.183 5.38 8.06 10.266 6.135 13.736-.78 1.407-2.188 2.569-3.64 3.462-3.668 2.356-5.294 3.345-6.646 5.578.064.05 1.762-1.864 7.363-4.446zm1.197 24.44h8.93s-8.124 22.553-8.124 51.766H8.126C8.126 65.81 0 42.77 0 42.77h8.932s1.481 5.72 3.498 15.57c2.016-9.85 3.498-15.57 3.498-15.57zm19.757 31.64l1.89-3.117c.86.91 2.169 1.515 3.564 1.515.752 0 1.31-.325 1.31-.866 0-1.601-6.334-.757-6.334-5.908 0-2.337 1.803-4.631 5.325-4.631 1.89 0 3.607.584 4.874 1.666l-1.847 3.03a4.944 4.944 0 0 0-3.177-1.169c-.752 0-1.031.347-1.031.78 0 1.514 6.29.952 6.29 5.82 0 2.944-2.06 4.806-5.388 4.806-2.47 0-4.187-.714-5.476-1.927m14.536 1.667V65.212h-2.963v-3.571h9.983v3.571h-2.94v10.864zm12.452-10.215L61.6 70.643h2.125l-1.052-4.782zm2.254 10.215l-.407-1.861h-3.715l-.407 1.86h-4.403l4.21-14.434h4.916l4.208 14.435h-4.402zm4.659-1.666l1.89-3.117c.858.91 2.168 1.515 3.564 1.515.75 0 1.309-.325 1.309-.866 0-1.601-6.334-.757-6.334-5.908 0-2.337 1.804-4.631 5.325-4.631 1.89 0 3.607.584 4.874 1.666l-1.847 3.03a4.944 4.944 0 0 0-3.177-1.169c-.752 0-1.031.347-1.031.78 0 1.514 6.29.952 6.29 5.82 0 2.944-2.06 4.806-5.388 4.806-2.47 0-4.187-.714-5.475-1.927M39.765 94.537v-5.779l-4.444-8.657h4.444l2.04 4.935 2.017-4.935h4.424l-4.401 8.657v5.779zM52.69 84.322l-1.074 4.782h2.126l-1.052-4.782zm2.254 10.215l-.408-1.861h-3.714l-.408 1.86h-4.402l4.209-14.435h4.917l4.208 14.436h-4.402zm12.603-9.567c0-.865-.602-1.298-1.332-1.298h-1.61v2.619h1.61c.73 0 1.332-.455 1.332-1.32zm-.3 9.567l-1.611-4.675h-1.03v4.675h-4.059V80.102h6.312c2.964 0 4.81 2.142 4.81 4.804 0 2.424-1.202 3.658-2.147 4.198l2.211 5.433h-4.487zm5.624-5.281v-9.155h4.1v9.177c0 1.19.645 1.925 1.847 1.925 1.203 0 1.847-.735 1.847-1.925V80.1h4.1v9.133c0 3.507-2.339 5.562-5.947 5.562-3.585 0-5.947-2.055-5.947-5.54m12.581 3.615l1.89-3.116c.858.91 2.168 1.515 3.564 1.515.75 0 1.31-.325 1.31-.866 0-1.602-6.335-.758-6.335-5.908 0-2.338 1.804-4.632 5.325-4.632 1.89 0 3.607.585 4.874 1.667l-1.847 3.03a4.94 4.94 0 0 0-3.177-1.17c-.751 0-1.031.348-1.031.78 0 1.515 6.29.952 6.29 5.822 0 2.943-2.06 4.804-5.388 4.804-2.47 0-4.187-.714-5.475-1.926m19.881 1.667v-5.65h-3.607v5.65h-4.058V80.1h4.058v5.217h3.607V80.1h4.058v14.436zm5.69 0h4.057V80.102h-4.057zm13.547 0l-3.8-6.666v6.666h-4.059V80.1h4.123l3.522 6.233V80.1h4.057v14.436z" fill="#FFF" fill-rule="evenodd"/></svg>