<?xml version="1.0" encoding="utf-8"?><svg xmlns="http://www.w3.org/2000/svg" xmlns:xlink="http://www.w3.org/1999/xlink"><symbol viewBox="0 0 40 40" id="symbol_alert" xmlns="http://www.w3.org/2000/svg"><g fill-rule="evenodd"><path d="M20 16h2v5h-2zm0 6h2v2h-2z"/><path d="M21 27a7 7 0 1 0 0-14 7 7 0 0 0 0 14zm0 1a8 8 0 1 1 0-16 8 8 0 0 1 0 16z"/></g></symbol><symbol viewBox="0 0 30 30" id="symbol_basket" xmlns="http://www.w3.org/2000/svg"><path d="M6.624 4.023H3V3h4.379l2.624 10.995h12.008c.201 0 .323.127.401-.062l2.616-5.936c.14-.337-.642-1-1-1H10.003v-.993l14.365.063c1.075 0 2.035.918 1.614 1.93l-2.65 6.336c-.234.567-.719.667-1.32.667H11.017v2.022c.061.22.813 0 1.037 0l10.954.076v.904h-11.25c-.671 0-1.572-.321-1.756-.98L6.624 4.023zM12.501 20c-.83 0-1.501.687-1.501 1.535 0 .848.672 1.535 1.5 1.535.83 0 1.501-.687 1.501-1.535 0-.848-.672-1.535-1.5-1.535zM10 21.558C10 20.145 11.12 19 12.501 19c1.381 0 2.501 1.145 2.501 2.558 0 1.413-1.12 2.558-2.5 2.558-1.382 0-2.502-1.145-2.502-2.558zM21.5 20c-.828 0-1.5.687-1.5 1.535 0 .848.672 1.535 1.5 1.535.83 0 1.501-.687 1.501-1.535 0-.848-.672-1.535-1.5-1.535zM19 21.558C19 20.145 20.12 19 21.501 19c1.381 0 2.501 1.145 2.501 2.558 0 1.413-1.12 2.558-2.5 2.558-1.382 0-2.502-1.145-2.502-2.558z"/></symbol><symbol viewBox="0 0 12 12" id="symbol_close" xmlns="http://www.w3.org/2000/svg"><path fill-rule="evenodd" d="M6.314 5.607l4.95 4.95-.708.706-4.95-4.95-4.95 4.95-.706-.707 4.95-4.95L-.05.657.657-.05l4.95 4.95 4.95-4.95.706.707-4.95 4.95z"/></symbol><symbol viewBox="0 0 50 50" id="symbol_delivery-cart" xmlns="http://www.w3.org/2000/svg"><path d="M25 50C11.193 50 0 38.807 0 25S11.193 0 25 0s25 11.193 25 25-11.193 25-25 25zm-7.442-30h2.883l3.26-3.26a1.02 1.02 0 0 0-1.442-1.442L17.558 20zm12.001 0h2.883l-4.701-4.702a1.02 1.02 0 0 0-1.442 1.442l3.26 3.26zM13 22v2h.643c.534 0 1.021.304 1.256.784L19 35h12l4.102-10.214A1.396 1.396 0 0 1 36.358 24H37v-2H13z"/></symbol><symbol viewBox="0 0 50 50" id="symbol_delivery-money" xmlns="http://www.w3.org/2000/svg"><path d="M25 50c13.807 0 25-11.193 25-25S38.807 0 25 0 0 11.193 0 25s11.193 25 25 25zm1.312-29.941l.101.225c-.39.145-.492.462-.356.766.242.538.89.498 1.135.552.328.066.397.344.176.453l-.125.041c-.185.038-.428.01-.623-.02l.065.387c.237.062.493.068.72.027l.096.219.22-.045-.105-.229c.332-.126.533-.389.36-.774-.214-.473-.755-.507-1.208-.612-.274-.071-.373-.364-.064-.446l.06-.016c.16-.033.342-.013.512.008l-.035-.157c.476.295.873.723 1.09 1.228.45 1.043-.03 2.038-1.069 2.295-1.173.292-2.596-.448-3.094-1.603-.47-1.095.081-2.137 1.231-2.328.3-.05.61-.037.913.029zm.27.073c.071.023.142.048.211.077a2.014 2.014 0 0 0-.167.02l-.044-.097zm11.135 4.088c-5.433 4.216-12.654-.038-17.952 4.454L16 20.454c4.944-4.772 11.773-.45 17.951-4.454l3.766 8.22zm-2.556-1.664l-1.315-2.835a5.02 5.02 0 0 1-1.73-.721c-4.546 1.556-8.799.175-12.198 1.401-.146.769-.486 1.569-.918 2.094l1.135 2.487c.686-.02 1.522.202 2.189.556 4.127-1.442 8.425-.147 12.018-1.241a5.34 5.34 0 0 1 .819-1.741zM38 27.443c-6.857 3.941-12.399-1.424-19.5 5.99l-4.5-9.97L15.402 22l3.807 8.406-.002.007c7.445-5.595 11.195-1.176 18.109-4.563.294.648.565 1.332.684 1.593z"/></symbol><symbol viewBox="0 0 50 50" id="symbol_delivery-phone" xmlns="http://www.w3.org/2000/svg"><path d="M25 50c13.807 0 25-11.193 25-25S38.807 0 25 0 0 11.193 0 25s11.193 25 25 25zm5.744-15.288c-6.141 2.806-15.67-15.717-9.668-18.847L22.83 15l2.91 5.682-1.737.855c-1.825.978 1.976 8.4 3.843 7.495l1.72-.842 2.934 5.662-1.757.86z"/></symbol><symbol viewBox="0 0 50 50" id="symbol_delivery-track" xmlns="http://www.w3.org/2000/svg"><path d="M25 50c13.807 0 25-11.193 25-25S38.807 0 25 0 0 11.193 0 25s11.193 25 25 25zm-7-19h-1a1 1 0 0 1-1-1v-2h12v-9h4.667c1.117 0 1.6.576 1.936 1.107.594.94 1.536 2.432 2.109 3.378.188.312.288.67.288 1.035V29c0 1.121-.728 2-2 2h-1a3.001 3.001 0 0 1-6 0h-4a3.001 3.001 0 0 1-6 0zm3.2-1a1.201 1.201 0 0 1 0 2.4 1.201 1.201 0 0 1 0-2.4zm10 0a1.201 1.201 0 0 1 0 2.4 1.201 1.201 0 0 1 0-2.4zM21 21h-8v-2h8v-1h-5v-1a1 1 0 0 1 1-1h9a1 1 0 0 1 1 1v10H16v-3h-2v-2h7v-1zm9 0v3h4.715l-1.427-2.496A.999.999 0 0 0 32.42 21H30z"/></symbol><symbol viewBox="0 0 31 21" id="symbol_explore" xmlns="http://www.w3.org/2000/svg"><path d="M30.5 20H.5c-.3 0-.5.2-.5.5s.2.5.5.5h30c.3 0 .5-.2.5-.5s-.2-.5-.5-.5zM.5 1h30c.3 0 .5-.2.5-.5s-.2-.5-.5-.5H.5C.2 0 0 .2 0 .5s.2.5.5.5zm30 9H.5c-.3 0-.5.2-.5.5s.2.5.5.5h30c.3 0 .5-.2.5-.5s-.2-.5-.5-.5z"/></symbol><symbol viewBox="0 0 18 18" id="symbol_facebook" xmlns="http://www.w3.org/2000/svg"><path d="M17.006 0H.994A.994.994 0 0 0 0 .994v16.013c0 .548.445.993.994.993h8.621v-6.97H7.269V8.312h2.346V6.31c0-2.325 1.42-3.591 3.494-3.591.994 0 1.848.074 2.097.107v2.43h-1.439c-1.128 0-1.346.537-1.346 1.323v1.735h2.69l-.35 2.716h-2.34V18h4.587a.993.993 0 0 0 .992-.994V.994A.994.994 0 0 0 17.006 0z"/></symbol><symbol viewBox="0 0 24 24" id="symbol_fb-round" xmlns="http://www.w3.org/2000/svg"><path d="M12 0C5.373 0 0 5.373 0 12s5.373 12 12 12 12-5.373 12-12S18.627 0 12 0zm3 8h-1.35c-.538 0-.65.221-.65.778V10h2l-.209 2H13v7h-3v-7H8v-2h2V7.692C10 5.923 10.931 5 13.029 5H15v3z" fill-rule="evenodd"/></symbol><symbol viewBox="0 0 30 30" id="symbol_heart" xmlns="http://www.w3.org/2000/svg"><path d="M14.366 6.793c.233.259.446.547.634.864a5.43 5.43 0 0 1 .635-.863c1.09-1.208 2.624-1.786 4.137-1.786 2.647 0 5.228 1.776 5.228 5.058 0 3.33-3.54 6.726-8.005 11.01-.648.622-1.316 1.262-1.995 1.924-.68-.662-1.347-1.302-1.995-1.924C8.54 16.792 5 13.396 5 10.066 5 6.79 7.582 5 10.234 5c1.509 0 3.04.579 4.132 1.793zM15 21.607l1.332-1.281c1.897-1.82 3.589-3.443 4.923-4.977C23.065 13.267 24 11.582 24 10.066c0-2.608-2.004-4.058-4.228-4.058-1.535 0-3.05.708-3.912 2.16L15 9.617l-.86-1.45C13.273 6.707 11.76 6 10.234 6 8.007 6 6 7.46 6 10.066c0 1.516.934 3.2 2.745 5.283 1.334 1.534 3.026 3.157 4.923 4.977.434.416.879.843 1.332 1.28z"/></symbol><symbol viewBox="0 0 20 18" id="symbol_heart-filled" xmlns="http://www.w3.org/2000/svg"><path d="M9.366 1.793C8.274.579 6.743 0 5.234 0 2.582 0 0 1.79 0 5.066c0 3.33 3.54 6.726 8.005 11.01.648.622 1.316 1.262 1.995 1.924.68-.662 1.347-1.302 1.995-1.924C16.46 11.792 20 8.396 20 5.066 20 1.784 17.42.008 14.772.008c-1.513 0-3.047.578-4.137 1.786a5.398 5.398 0 0 0-.635.863 5.45 5.45 0 0 0-.634-.864z"/></symbol><symbol viewBox="0 0 17 33" id="symbol_hor-arrow" xmlns="http://www.w3.org/2000/svg"><path d="M15.981 32.314L1 16.162 15.981 0"/></symbol><symbol viewBox="0 0 24 24" id="symbol_inst-round" xmlns="http://www.w3.org/2000/svg"><path d="M14.829 6.302c-.738-.034-.96-.04-2.829-.04-1.869 0-2.09.007-2.828.04-1.899.087-2.783.986-2.87 2.87-.033.738-.041.959-.041 2.828 0 1.869.008 2.09.041 2.829.087 1.879.967 2.783 2.87 2.87.737.033.959.041 2.828.041 1.87 0 2.091-.007 2.829-.041 1.899-.086 2.782-.988 2.87-2.87.033-.738.04-.96.04-2.829 0-1.869-.007-2.09-.04-2.828-.088-1.883-.973-2.783-2.87-2.87zM12 15.595a3.595 3.595 0 1 1 0-7.19 3.595 3.595 0 0 1 0 7.19zm3.737-6.491a.84.84 0 1 1 0-1.68.84.84 0 0 1 0 1.68zM14.333 12a2.333 2.333 0 1 1-4.666 0 2.333 2.333 0 0 1 4.666 0zM12 0C5.373 0 0 5.373 0 12s5.373 12 12 12 12-5.373 12-12S18.627 0 12 0zm6.958 14.886c-.115 2.545-1.532 3.955-4.071 4.072-.747.034-.986.042-2.887.042s-2.139-.008-2.886-.042c-2.544-.117-3.955-1.529-4.072-4.072C5.008 14.14 5 13.901 5 12c0-1.901.008-2.139.042-2.886.117-2.544 1.529-3.955 4.072-4.071C9.861 5.008 10.099 5 12 5c1.901 0 2.14.008 2.887.043 2.545.117 3.957 1.532 4.071 4.071.034.747.042.985.042 2.886 0 1.901-.008 2.14-.042 2.886z" fill-rule="evenodd"/></symbol><symbol viewBox="0 0 65 63" id="symbol_logo" xmlns="http://www.w3.org/2000/svg"><path
     style="fill-rule:evenodd"
     id="path2"
     d="m 30.352571,10.593 c 3.46,1.492 4.51,2.598 4.548,2.569 -0.834,-1.29 -1.839,-1.862 -4.104,-3.224 -0.898,-0.516 -1.768,-1.187 -2.25,-2 -1.187,-2.005 -0.646,-4.83 3.791,-7.938 -0.404,2.184 0.168,3.408 0.805,4.458 0.82,1.353 1.649,2.082 2.675,3.196 1.673,1.817 2.963,3.897 2.25,7.408 a 8.016,8.016 0 0 1 -2.309,4.178 c -1.266,-3.644 -6.154,-4.976 -7.04,-5.043 0.14,0.073 0.242,0.133 0.352,0.183 2.823,1.283 4.681,2.846 5.248,4.457 0.293,0.834 0.214,2.029 -0.243,2.842 -0.485,1.025 -1.751,1.98 -2.754,2.43 -0.065,0.029 0.161,-0.728 -0.147,-1.642 -0.336,-0.998 -1.027,-1.75 -1.725,-2.398 -0.832,-0.773 -1.71,-1.57 -2.688,-2.823 -2.68,-3.467 -1.151,-7.292 0.162,-9.575 0.296,0.762 0.815,1.755 3.43,2.922 z m -0.169,14.55 c 0,0 0.894,3.3 2.111,8.98 1.217,-5.68 2.11,-8.98 2.11,-8.98 h 5.39 c 0,0 -4.903,13.29 -4.903,29.857 h -5.194 c 0,-16.849 -4.903,-29.856 -4.903,-29.856 h 5.39 z" />
  <path
     d="M 16.889398,62.920012 V 57.33627 h 4.236916 v 1.473352 h -2.54548 v 0.552712 h 2.485548 v 1.473347 h -2.485548 v 0.610984 h 2.54548 v 1.473347 h -4.236916"/>
  <path
     d="m 2.094319,62.920012 v -2.21918 L 0,57.33627 H 1.901201 L 2.940036,59.219161 3.960559,57.33627 H 5.86176 l -2.07767,3.364562 v 2.21918 H 2.094319"/>
  <path
     d="m 5.968307,61.090395 v -1.476678 h 3.109848 v 1.476678 H 5.968307"/>
  <path
     d="m 10.341738,60.131471 c 0,-1.791326 1.675738,-2.735216 3.073221,-2.888427 0.94509,-0.103617 2.100978,0.737504 2.452251,1.456698 l -1.423405,0.729184 C 14.28565,59.085978 13.917729,58.73304 13.414959,58.73304 c -0.812422,0 -1.356811,0.62097 -1.356811,1.398431 0,0.779126 0.544389,1.398435 1.356811,1.398435 0.317977,0 0.694222,-0.116539 0.870691,-0.251388 v -0.199774 h -1.038835 v -1.473351 h 2.721948 v 2.285771 c -0.619305,0.6859 -1.4567,1.128738 -2.553804,1.128738 -1.691436,0 -3.073221,-1.103765 -3.073221,-2.888431"/>
  <path
     d="m 25.797741,62.920012 -2.061022,-2.830159 v 2.830159 H 22.045283 V 57.33627 h 1.743044 l 1.941157,2.645368 V 57.33627 h 1.691436 v 5.583742 h -1.623179"/>
  <path
     d="M 28.324909,62.920012 V 57.33627 h 4.236915 v 1.473352 h -2.545479 v 0.552712 h 2.487212 v 1.473347 h -2.487212 v 0.610984 h 2.545479 v 1.473347 h -4.236915"/>
  <path
     d="m 36.755455,59.244135 c 0,-0.30133 -0.266366,-0.434513 -0.551047,-0.434513 h -1.030514 v 0.879011 h 1.030514 c 0.284681,0 0.551047,-0.134849 0.551047,-0.444498 z m -0.199775,3.675877 -0.770802,-1.758028 h -0.610984 v 1.758028 H 33.482458 V 57.33627 h 2.979992 c 1.30687,0 2.009415,0.870692 2.009415,1.916189 0,0.963918 -0.559372,1.473347 -1.003875,1.691436 l 1.013865,1.976117 H 36.55568"/>
  <path
     d="m 42.014559,58.992747 -0.552713,1.801316 h 1.105429 z m 1.205315,3.927265 -0.201441,-0.652602 h -2.00941 l -0.201445,0.652602 h -1.916184 l 2.059358,-5.583742 h 2.125952 l 2.061019,5.583742 h -1.917849"/>
  <path
     d="m 46.299754,62.920012 v -4.11039 h -1.49832 V 57.33627 h 4.681418 v 1.473352 h -1.491658 v 4.11039 h -1.69144"/>
  <path
     d="M 50.251992,62.920012 V 57.33627 h 1.691437 v 5.583742 h -1.691437"/>
  <path
     d="m 57.109301,60.131471 c 0,-0.777461 -0.527738,-1.398431 -1.340163,-1.398431 -0.81242,0 -1.340163,0.62097 -1.340163,1.398431 0,0.779126 0.527743,1.398435 1.340163,1.398435 0.812425,0 1.340163,-0.619309 1.340163,-1.398435 z m -4.396736,0 c 0,-1.71641 1.331838,-2.888427 3.056573,-2.888427 1.724734,0 3.056574,1.172017 3.056574,2.888427 0,1.716409 -1.33184,2.888431 -3.056574,2.888431 -1.724735,0 -3.056573,-1.172022 -3.056573,-2.888431"/>
  <path
     d="m 63.345646,62.920012 -2.059358,-2.830159 v 2.830159 H 59.594852 V 57.33627 h 1.741379 l 1.942823,2.645368 V 57.33627 h 1.691436 v 5.583742 h -1.624844"
     style="fill-opacity:1;fill-rule:nonzero;stroke:none;stroke-width:0.016648"/></symbol><symbol viewBox="0 0 30 30" id="symbol_man" xmlns="http://www.w3.org/2000/svg"><path d="M15.083 4a4.589 4.589 0 0 1 4.584 4.584 4.59 4.59 0 0 1-4.584 4.584A4.59 4.59 0 0 1 10.5 8.584 4.589 4.589 0 0 1 15.083 4zm0 1A3.589 3.589 0 0 0 11.5 8.584a3.59 3.59 0 0 0 3.583 3.584 3.59 3.59 0 0 0 3.584-3.584A3.589 3.589 0 0 0 15.083 5zm-3.638 8.801C8.073 16.947 7 21.251 7 23.5v.5h16v-.5c0-2.236-1.144-6.516-4.456-9.673l-.69.723c2.85 2.718 3.97 6.338 4.127 8.45H8.018c.147-2.135 1.216-5.769 4.11-8.468l-.683-.73z"/></symbol><symbol viewBox="0 0 97.75 97.75" id="symbol_ok-round" xmlns="http://www.w3.org/2000/svg"><path d="M48.921 40.507a8.367 8.367 0 0 0 8.367-8.443c-.017-4.679-3.742-8.402-8.411-8.406a8.398 8.398 0 0 0-8.432 8.508c.035 4.66 3.794 8.358 8.476 8.341z"/><path d="M48.875 0C21.882 0 0 21.883 0 48.875S21.882 97.75 48.875 97.75 97.75 75.867 97.75 48.875 75.868 0 48.875 0zm.07 14.863c9.52.026 17.161 7.813 17.112 17.438-.048 9.403-7.814 17.024-17.318 16.992-9.407-.032-17.122-7.831-17.066-17.253.053-9.525 7.772-17.203 17.272-17.177zm19.282 41.194c-2.105 2.161-4.639 3.725-7.453 4.816-2.66 1.031-5.575 1.55-8.461 1.896.437.474.642.707.914.979 3.916 3.937 7.851 7.854 11.754 11.802 1.33 1.346 1.607 3.014.875 4.577-.799 1.71-2.592 2.834-4.351 2.713-1.114-.077-1.983-.63-2.754-1.407-2.956-2.974-5.968-5.895-8.862-8.925-.845-.882-1.249-.714-1.994.052a589.856 589.856 0 0 1-9.034 9.072c-1.365 1.346-2.989 1.59-4.573.82-1.683-.814-2.753-2.533-2.671-4.262.058-1.166.632-2.06 1.434-2.858 3.877-3.869 7.742-7.75 11.608-11.628.257-.257.495-.53.868-.93-5.273-.551-10.028-1.849-14.099-5.032-.506-.396-1.027-.778-1.487-1.222-1.783-1.711-1.962-3.672-.553-5.69 1.207-1.728 3.231-2.19 5.336-1.197.408.191.796.433 1.168.689 7.586 5.213 18.008 5.356 25.624.233.754-.576 1.561-1.05 2.496-1.289 1.816-.468 3.512.201 4.486 1.791 1.115 1.817 1.102 3.589-.271 5z"/></symbol><symbol viewBox="0 0 20 20" id="symbol_search" xmlns="http://www.w3.org/2000/svg"><path d="M0 510h1440v512H0zM11.505 11.636a4.75 4.75 0 1 1 .469-.427l3.767 3.767-.448.448-3.788-3.788zm1.162-3.72a4.117 4.117 0 1 0-8.234 0 4.117 4.117 0 0 0 8.234 0z"/></symbol><symbol viewBox="0 0 152 17" id="symbol_stas" xmlns="http://www.w3.org/2000/svg"><path d="M0 14.186l2.043-3.34c.93.975 2.346 1.624 3.855 1.624.813 0 1.417-.347 1.417-.928 0-1.715-6.85-.811-6.85-6.33C.464 2.707 2.414.25 6.223.25c2.043 0 3.901.626 5.27 1.785L9.499 5.281A5.377 5.377 0 0 0 6.06 4.03c-.813 0-1.115.37-1.115.834 0 1.623 6.804 1.02 6.804 6.238 0 3.154-2.229 5.148-5.829 5.148-2.67 0-4.528-.765-5.921-2.064M15.616 16V4.523H12.5V.75H23v3.773h-3.094V16zM28.761 5.208l-1.127 5.053h2.232L28.76 5.208zM31.128 16l-.428-1.967h-3.9L26.37 16h-4.62L26.168.75h5.163L35.75 16h-4.622zM36 14.186l2.044-3.34c.928.975 2.345 1.624 3.854 1.624.813 0 1.417-.347 1.417-.928 0-1.715-6.85-.811-6.85-6.33 0-2.505 1.95-4.962 5.758-4.962 2.044 0 3.902.626 5.272 1.785l-1.997 3.246A5.377 5.377 0 0 0 42.06 4.03c-.812 0-1.115.37-1.115.834 0 1.623 6.804 1.02 6.804 6.238 0 3.154-2.23 5.148-5.829 5.148-2.67 0-4.528-.765-5.921-2.064M56.978 16V9.895L52.25.75h4.728l2.17 5.213L61.295.75H66l-4.682 9.145V16zM70.761 5.208l-1.127 5.053h2.232L70.76 5.208zM73.128 16l-.428-1.967h-3.9L68.37 16h-4.62L68.168.75h5.164L77.75 16h-4.622zm13.38-10.106c0-.914-.644-1.371-1.427-1.371h-1.728v2.766h1.728c.783 0 1.427-.48 1.427-1.395zM86.186 16l-1.727-4.939h-1.106V16H79V.75h6.772c3.178 0 5.159 2.264 5.159 5.075 0 2.561-1.29 3.865-2.303 4.436L91 16h-4.814zm6.064-5.594V.75h4.31v9.679c0 1.255.676 2.031 1.94 2.031 1.264 0 1.94-.776 1.94-2.031V.75h4.31v9.633c0 3.698-2.46 5.867-6.25 5.867-3.768 0-6.25-2.169-6.25-5.844m13.25 3.78l2.043-3.34c.93.975 2.346 1.624 3.855 1.624.813 0 1.417-.347 1.417-.928 0-1.715-6.85-.811-6.85-6.33 0-2.505 1.95-4.962 5.758-4.962 2.044 0 3.902.626 5.272 1.785l-1.998 3.246a5.374 5.374 0 0 0-3.436-1.251c-.812 0-1.115.37-1.115.834 0 1.623 6.804 1.02 6.804 6.238 0 3.154-2.23 5.148-5.829 5.148-2.67 0-4.528-.765-5.921-2.064M126.423 16v-5.968h-3.846V16h-4.327V.75h4.327v5.51h3.846V.75h4.327V16zm6.327 0h4.5V.75h-4.5zm14.395 0l-4.06-7.042V16h-4.335V.75h4.404l3.761 6.585V.75h4.335V16z"/></symbol><symbol viewBox="0 0 21 22" id="symbol_trash" xmlns="http://www.w3.org/2000/svg"><path d="M10.5 18c.276 0 .5-.14.5-.314V7.314C11 7.14 10.776 7 10.5 7s-.5.14-.5.314v10.372c0 .174.224.314.5.314zm-3 0c.276 0 .5-.14.5-.314V7.314C8 7.14 7.776 7 7.5 7s-.5.14-.5.314v10.372c0 .174.224.314.5.314zm6 0c.276 0 .5-.14.5-.314V7.314C14 7.14 13.776 7 13.5 7s-.5.14-.5.314v10.372c0 .174.224.314.5.314z"/><path d="M19.058 3h-5.054c-.044-.487-.155-1.97-.677-2.498A1.689 1.689 0 0 0 12.083 0H8.125c-.496 0-.914.17-1.245.502C6.36 1.03 6.044 2.512 6 3H0v1h2.037l.925 16.059C2.976 20.73 3.4 22 4.905 22h11.19c1.504 0 1.929-1.27 1.943-1.933L18.968 4H21V3h-1.942zM7.468 1.285a.772.772 0 0 1 .644-.327h3.775c.265 0 .476.107.645.327.304.394.426 1.213.468 1.715H7c.042-.502.164-1.321.468-1.715zm9.775 18.706c-.002.107-.057 1.05-1.15 1.05H4.908c-1.082 0-1.147-.944-1.151-1.057L3 4h15l-.757 15.991z"/></symbol><symbol viewBox="0 0 18 15" id="symbol_twitter" xmlns="http://www.w3.org/2000/svg"><path d="M18 1.776a7.23 7.23 0 0 1-2.121.596A3.778 3.778 0 0 0 17.503.277a7.288 7.288 0 0 1-2.345.919A3.645 3.645 0 0 0 12.462 0c-2.384 0-4.136 2.281-3.598 4.649-3.068-.158-5.789-1.665-7.61-3.956C.285 2.395.75 4.62 2.394 5.749a3.608 3.608 0 0 1-1.671-.474c-.04 1.754 1.185 3.396 2.962 3.76a3.612 3.612 0 0 1-1.668.065c.469 1.505 1.833 2.6 3.45 2.63A7.294 7.294 0 0 1 0 13.299 10.267 10.267 0 0 0 5.661 15c6.857 0 10.73-5.938 10.496-11.264A7.627 7.627 0 0 0 18 1.776z"/></symbol><symbol viewBox="0 0 14 8" id="symbol_ver-arrow" xmlns="http://www.w3.org/2000/svg"><path d="M0 1.51L1.65 0l5.352 4.98L12.35 0 14 1.51 7.002 8z"/></symbol><symbol viewBox="0 0 18 11" id="symbol_vk" xmlns="http://www.w3.org/2000/svg"><path d="M9.871 10.995c.457 0 .644-.319.638-.719-.023-1.506.536-2.317 1.544-1.26 1.116 1.17 1.347 1.98 2.703 1.98h2.4c.606 0 .844-.205.844-.526 0-.678-1.066-1.874-1.969-2.753-1.264-1.23-1.323-1.259-.234-2.739C17.147 3.14 18.914.786 17.35.786h-2.985c-.58 0-.621.341-.828.85-.746 1.845-2.164 4.233-2.702 3.868-.564-.381-.306-1.89-.263-4.134.011-.592.008-.998-.856-1.209A5.79 5.79 0 0 0 8.361 0C6.656 0 5.48.749 6.148.88c1.178.23 1.065 2.9.79 4.053-.478 2.009-2.276-1.59-3.025-3.382-.181-.43-.237-.765-.882-.765H.591C.22.786 0 .91 0 1.19c0 .473 2.22 5.28 4.34 7.676 2.066 2.338 4.11 2.128 5.531 2.128z"/></symbol><symbol viewBox="0 0 24 24" id="symbol_vk-round" xmlns="http://www.w3.org/2000/svg"><path d="M12 0C5.373 0 0 5.373 0 12s5.373 12 12 12 12-5.373 12-12S18.627 0 12 0zm6.344 16.163h-1.867c-1.055 0-1.232-.601-2.102-1.469-.785-.785-1.22-.183-1.202.935.006.297-.141.534-.495.534-1.105 0-2.694.156-4.304-1.58C6.727 12.804 5 9.235 5 8.884c0-.208.172-.301.459-.301h1.898c.503 0 .545.249.686.568.584 1.331 1.981 4.002 2.354 2.511.214-.856.301-2.839-.615-3.01-.52-.096.396-.652 1.722-.652.33 0 .688.035 1.054.12.673.156.676.458.666.898-.034 1.666-.235 2.786.204 3.069.419.271 1.521-1.502 2.104-2.871.159-.378.191-.632.643-.632h2.322c1.216 0-.159 1.748-1.21 3.112-.847 1.099-.802 1.12.183 2.034.701.651 1.53 1.54 1.53 2.043 0 .238-.186.39-.656.39z" fill-rule="evenodd"/></symbol><symbol viewBox="0 0 24 24" id="symbol_youtube-round" xmlns="http://www.w3.org/2000/svg"><path d="M12 0C5.373 0 0 5.373 0 12s5.373 12 12 12 12-5.373 12-12S18.627 0 12 0zm4.441 16.892c-2.102.144-6.784.144-8.883 0C5.282 16.736 5.017 15.622 5 12c.017-3.629.285-4.736 2.558-4.892 2.099-.144 6.782-.144 8.883 0C18.718 7.264 18.982 8.378 19 12c-.018 3.629-.285 4.736-2.559 4.892zM10 9.658l4.917 2.338L10 14.342V9.658z" fill-rule="evenodd"/></symbol></svg>