<?xml version="1.0" encoding="utf-8"?><svg xmlns="http://www.w3.org/2000/svg" xmlns:xlink="http://www.w3.org/1999/xlink"><symbol viewBox="0 0 40 40" id="symbol_alert" xmlns="http://www.w3.org/2000/svg"><g fill-rule="evenodd"><path d="M20 16h2v5h-2zm0 6h2v2h-2z"/><path d="M21 27a7 7 0 1 0 0-14 7 7 0 0 0 0 14zm0 1a8 8 0 1 1 0-16 8 8 0 0 1 0 16z"/></g></symbol><symbol viewBox="0 0 30 30" id="symbol_basket" xmlns="http://www.w3.org/2000/svg"><path d="M6.624 4.023H3V3h4.379l2.624 10.995h12.008c.201 0 .323.127.401-.062l2.616-5.936c.14-.337-.642-1-1-1H10.003v-.993l14.365.063c1.075 0 2.035.918 1.614 1.93l-2.65 6.336c-.234.567-.719.667-1.32.667H11.017v2.022c.061.22.813 0 1.037 0l10.954.076v.904h-11.25c-.671 0-1.572-.321-1.756-.98L6.624 4.023zM12.501 20c-.83 0-1.501.687-1.501 1.535 0 .848.672 1.535 1.5 1.535.83 0 1.501-.687 1.501-1.535 0-.848-.672-1.535-1.5-1.535zM10 21.558C10 20.145 11.12 19 12.501 19c1.381 0 2.501 1.145 2.501 2.558 0 1.413-1.12 2.558-2.5 2.558-1.382 0-2.502-1.145-2.502-2.558zM21.5 20c-.828 0-1.5.687-1.5 1.535 0 .848.672 1.535 1.5 1.535.83 0 1.501-.687 1.501-1.535 0-.848-.672-1.535-1.5-1.535zM19 21.558C19 20.145 20.12 19 21.501 19c1.381 0 2.501 1.145 2.501 2.558 0 1.413-1.12 2.558-2.5 2.558-1.382 0-2.502-1.145-2.502-2.558z"/></symbol><symbol viewBox="0 0 12 12" id="symbol_close" xmlns="http://www.w3.org/2000/svg"><path fill-rule="evenodd" d="M6.314 5.607l4.95 4.95-.708.706-4.95-4.95-4.95 4.95-.706-.707 4.95-4.95L-.05.657.657-.05l4.95 4.95 4.95-4.95.706.707-4.95 4.95z"/></symbol><symbol viewBox="0 0 50 50" id="symbol_delivery-cart" xmlns="http://www.w3.org/2000/svg"><path d="M25 50C11.193 50 0 38.807 0 25S11.193 0 25 0s25 11.193 25 25-11.193 25-25 25zm-7.442-30h2.883l3.26-3.26a1.02 1.02 0 0 0-1.442-1.442L17.558 20zm12.001 0h2.883l-4.701-4.702a1.02 1.02 0 0 0-1.442 1.442l3.26 3.26zM13 22v2h.643c.534 0 1.021.304 1.256.784L19 35h12l4.102-10.214A1.396 1.396 0 0 1 36.358 24H37v-2H13z"/></symbol><symbol viewBox="0 0 50 50" id="symbol_delivery-money" xmlns="http://www.w3.org/2000/svg"><path d="M25 50c13.807 0 25-11.193 25-25S38.807 0 25 0 0 11.193 0 25s11.193 25 25 25zm1.312-29.941l.101.225c-.39.145-.492.462-.356.766.242.538.89.498 1.135.552.328.066.397.344.176.453l-.125.041c-.185.038-.428.01-.623-.02l.065.387c.237.062.493.068.72.027l.096.219.22-.045-.105-.229c.332-.126.533-.389.36-.774-.214-.473-.755-.507-1.208-.612-.274-.071-.373-.364-.064-.446l.06-.016c.16-.033.342-.013.512.008l-.035-.157c.476.295.873.723 1.09 1.228.45 1.043-.03 2.038-1.069 2.295-1.173.292-2.596-.448-3.094-1.603-.47-1.095.081-2.137 1.231-2.328.3-.05.61-.037.913.029zm.27.073c.071.023.142.048.211.077a2.014 2.014 0 0 0-.167.02l-.044-.097zm11.135 4.088c-5.433 4.216-12.654-.038-17.952 4.454L16 20.454c4.944-4.772 11.773-.45 17.951-4.454l3.766 8.22zm-2.556-1.664l-1.315-2.835a5.02 5.02 0 0 1-1.73-.721c-4.546 1.556-8.799.175-12.198 1.401-.146.769-.486 1.569-.918 2.094l1.135 2.487c.686-.02 1.522.202 2.189.556 4.127-1.442 8.425-.147 12.018-1.241a5.34 5.34 0 0 1 .819-1.741zM38 27.443c-6.857 3.941-12.399-1.424-19.5 5.99l-4.5-9.97L15.402 22l3.807 8.406-.002.007c7.445-5.595 11.195-1.176 18.109-4.563.294.648.565 1.332.684 1.593z"/></symbol><symbol viewBox="0 0 50 50" id="symbol_delivery-phone" xmlns="http://www.w3.org/2000/svg"><path d="M25 50c13.807 0 25-11.193 25-25S38.807 0 25 0 0 11.193 0 25s11.193 25 25 25zm5.744-15.288c-6.141 2.806-15.67-15.717-9.668-18.847L22.83 15l2.91 5.682-1.737.855c-1.825.978 1.976 8.4 3.843 7.495l1.72-.842 2.934 5.662-1.757.86z"/></symbol><symbol viewBox="0 0 50 50" id="symbol_delivery-track" xmlns="http://www.w3.org/2000/svg"><path d="M25 50c13.807 0 25-11.193 25-25S38.807 0 25 0 0 11.193 0 25s11.193 25 25 25zm-7-19h-1a1 1 0 0 1-1-1v-2h12v-9h4.667c1.117 0 1.6.576 1.936 1.107.594.94 1.536 2.432 2.109 3.378.188.312.288.67.288 1.035V29c0 1.121-.728 2-2 2h-1a3.001 3.001 0 0 1-6 0h-4a3.001 3.001 0 0 1-6 0zm3.2-1a1.201 1.201 0 0 1 0 2.4 1.201 1.201 0 0 1 0-2.4zm10 0a1.201 1.201 0 0 1 0 2.4 1.201 1.201 0 0 1 0-2.4zM21 21h-8v-2h8v-1h-5v-1a1 1 0 0 1 1-1h9a1 1 0 0 1 1 1v10H16v-3h-2v-2h7v-1zm9 0v3h4.715l-1.427-2.496A.999.999 0 0 0 32.42 21H30z"/></symbol><symbol viewBox="0 0 31 21" id="symbol_explore" xmlns="http://www.w3.org/2000/svg"><path d="M30.5 20H.5c-.3 0-.5.2-.5.5s.2.5.5.5h30c.3 0 .5-.2.5-.5s-.2-.5-.5-.5zM.5 1h30c.3 0 .5-.2.5-.5s-.2-.5-.5-.5H.5C.2 0 0 .2 0 .5s.2.5.5.5zm30 9H.5c-.3 0-.5.2-.5.5s.2.5.5.5h30c.3 0 .5-.2.5-.5s-.2-.5-.5-.5z"/></symbol><symbol viewBox="0 0 18 18" id="symbol_facebook" xmlns="http://www.w3.org/2000/svg"><path d="M17.006 0H.994A.994.994 0 0 0 0 .994v16.013c0 .548.445.993.994.993h8.621v-6.97H7.269V8.312h2.346V6.31c0-2.325 1.42-3.591 3.494-3.591.994 0 1.848.074 2.097.107v2.43h-1.439c-1.128 0-1.346.537-1.346 1.323v1.735h2.69l-.35 2.716h-2.34V18h4.587a.993.993 0 0 0 .992-.994V.994A.994.994 0 0 0 17.006 0z"/></symbol><symbol viewBox="0 0 24 24" id="symbol_fb-round" xmlns="http://www.w3.org/2000/svg"><path d="M12 0C5.373 0 0 5.373 0 12s5.373 12 12 12 12-5.373 12-12S18.627 0 12 0zm3 8h-1.35c-.538 0-.65.221-.65.778V10h2l-.209 2H13v7h-3v-7H8v-2h2V7.692C10 5.923 10.931 5 13.029 5H15v3z" fill-rule="evenodd"/></symbol><symbol viewBox="0 0 30 30" id="symbol_heart" xmlns="http://www.w3.org/2000/svg"><path d="M14.366 6.793c.233.259.446.547.634.864a5.43 5.43 0 0 1 .635-.863c1.09-1.208 2.624-1.786 4.137-1.786 2.647 0 5.228 1.776 5.228 5.058 0 3.33-3.54 6.726-8.005 11.01-.648.622-1.316 1.262-1.995 1.924-.68-.662-1.347-1.302-1.995-1.924C8.54 16.792 5 13.396 5 10.066 5 6.79 7.582 5 10.234 5c1.509 0 3.04.579 4.132 1.793zM15 21.607l1.332-1.281c1.897-1.82 3.589-3.443 4.923-4.977C23.065 13.267 24 11.582 24 10.066c0-2.608-2.004-4.058-4.228-4.058-1.535 0-3.05.708-3.912 2.16L15 9.617l-.86-1.45C13.273 6.707 11.76 6 10.234 6 8.007 6 6 7.46 6 10.066c0 1.516.934 3.2 2.745 5.283 1.334 1.534 3.026 3.157 4.923 4.977.434.416.879.843 1.332 1.28z"/></symbol><symbol viewBox="0 0 20 18" id="symbol_heart-filled" xmlns="http://www.w3.org/2000/svg"><path d="M9.366 1.793C8.274.579 6.743 0 5.234 0 2.582 0 0 1.79 0 5.066c0 3.33 3.54 6.726 8.005 11.01.648.622 1.316 1.262 1.995 1.924.68-.662 1.347-1.302 1.995-1.924C16.46 11.792 20 8.396 20 5.066 20 1.784 17.42.008 14.772.008c-1.513 0-3.047.578-4.137 1.786a5.398 5.398 0 0 0-.635.863 5.45 5.45 0 0 0-.634-.864z"/></symbol><symbol viewBox="0 0 17 33" id="symbol_hor-arrow" xmlns="http://www.w3.org/2000/svg"><path d="M15.981 32.314L1 16.162 15.981 0"/></symbol><symbol viewBox="0 0 24 24" id="symbol_inst-round" xmlns="http://www.w3.org/2000/svg"><path d="M14.829 6.302c-.738-.034-.96-.04-2.829-.04-1.869 0-2.09.007-2.828.04-1.899.087-2.783.986-2.87 2.87-.033.738-.041.959-.041 2.828 0 1.869.008 2.09.041 2.829.087 1.879.967 2.783 2.87 2.87.737.033.959.041 2.828.041 1.87 0 2.091-.007 2.829-.041 1.899-.086 2.782-.988 2.87-2.87.033-.738.04-.96.04-2.829 0-1.869-.007-2.09-.04-2.828-.088-1.883-.973-2.783-2.87-2.87zM12 15.595a3.595 3.595 0 1 1 0-7.19 3.595 3.595 0 0 1 0 7.19zm3.737-6.491a.84.84 0 1 1 0-1.68.84.84 0 0 1 0 1.68zM14.333 12a2.333 2.333 0 1 1-4.666 0 2.333 2.333 0 0 1 4.666 0zM12 0C5.373 0 0 5.373 0 12s5.373 12 12 12 12-5.373 12-12S18.627 0 12 0zm6.958 14.886c-.115 2.545-1.532 3.955-4.071 4.072-.747.034-.986.042-2.887.042s-2.139-.008-2.886-.042c-2.544-.117-3.955-1.529-4.072-4.072C5.008 14.14 5 13.901 5 12c0-1.901.008-2.139.042-2.886.117-2.544 1.529-3.955 4.072-4.071C9.861 5.008 10.099 5 12 5c1.901 0 2.14.008 2.887.043 2.545.117 3.957 1.532 4.071 4.071.034.747.042.985.042 2.886 0 1.901-.008 2.14-.042 2.886z" fill-rule="evenodd"/></symbol><symbol viewBox="0 0 390.29 410.67" id="symbol_logo" xmlns="http://www.w3.org/2000/svg"><path d="M203 62.1c14.45-6.84 17.32-12.66 19-17.13 7.26 13.39 15.71 35.82.9 56.14a127.93 127.93 0 0 1-14.9 16.55c-3.86 3.8-7.68 8.21-9.54 14.06-1.7 5.36-.45 9.8-.81 9.63-5.55-2.64-12.54-8.24-15.22-14.25a23.18 23.18 0 0 1-1.35-16.66c3.13-9.44 13.41-18.61 29-26.13.61-.29 1.18-.65 1.94-1.07-4.89.39-31.91 8.19-38.91 29.56a47.76 47.76 0 0 1-12.77-24.49c-3.94-20.59 3.19-32.78 12.44-43.44 5.68-6.53 10.25-10.8 14.79-18.73C191.09 20 194.25 12.81 192 0c24.55 18.23 27.54 34.78 21 46.54-2.66 4.77-7.47 8.7-12.43 11.73-12.53 8-18.08 11.33-22.7 18.9.19.17 5.99-6.32 25.13-15.07z"/><path class="ocls-1" d="M207.08 144.91s-5.06 19.38-12 52.76c-6.89-33.38-11.95-52.76-11.95-52.76h-30.5s27.75 78.07 27.75 175.4h29.4c0-99 27.75-175.4 27.75-175.4zM101.44 410v-33.55h25.45v8.85H111.6v3.32h14.94v8.85H111.6v3.68h15.29V410zm-88.87 0v-13.33L0 376.45h11.42l6.23 11.32 6.14-11.32h11.42l-12.48 20.22V410zm23.28-11v-8.87h18.68V399zm26.27-5.75c0-10.76 8.3-17.35 18.46-17.35 8 0 12.62 4.42 14.73 8.75L86.76 389a7 7 0 0 0-6.18-4.18c-4.88 0-8.15 3.72-8.15 8.4s3.27 8.4 8.15 8.4a10 10 0 0 0 5.23-1.51v-1.21h-6.24v-8.85h16.34v13.73a19.92 19.92 0 0 1-15.33 6.79c-10.16.03-18.46-6.57-18.46-17.32zM155 410l-12.37-17v17h-10.21v-33.55h10.46l11.67 15.89v-15.89h10.16V410zm15.14 0v-33.55h25.45v8.85H180.3v3.32h14.94v8.85H180.3v3.68h15.29V410zm49.44 0L215 399.44h-3.67V410h-10.21v-33.55H219c7.85 0 12.07 5.23 12.07 11.52a10.83 10.83 0 0 1-6 10.16l6.07 11.87zm1.2-22.08c0-1.81-1.61-2.62-3.32-2.62h-6.18v5.28h6.18c1.71 0 3.32-.8 3.32-2.66zM259.61 410l-1.21-3.93h-12.07l-1.21 3.93H233.6l12.4-33.55h12.77L271.12 410zm-7.25-23.59L249 397.22h6.64zM278.11 410v-24.7h-9v-8.85h28.11v8.85h-9V410zm23.74 0v-33.55H312V410zm14.78-16.75c0-10.31 8-17.35 18.36-17.35s18.36 7 18.36 17.35-8 17.35-18.36 17.35-18.36-7.04-18.36-17.35zm26.41 0c0-4.68-3.17-8.4-8.05-8.4s-8.05 3.72-8.05 8.4 3.17 8.4 8.05 8.4 8.01-3.72 8.01-8.4z"/><path d="M380.5 410l-12.37-17v17H358v-33.55h10.46l11.67 15.89v-15.89h10.16V410z"/></symbol><symbol viewBox="0 0 30 30" id="symbol_man" xmlns="http://www.w3.org/2000/svg"><path d="M15.083 4a4.589 4.589 0 0 1 4.584 4.584 4.59 4.59 0 0 1-4.584 4.584A4.59 4.59 0 0 1 10.5 8.584 4.589 4.589 0 0 1 15.083 4zm0 1A3.589 3.589 0 0 0 11.5 8.584a3.59 3.59 0 0 0 3.583 3.584 3.59 3.59 0 0 0 3.584-3.584A3.589 3.589 0 0 0 15.083 5zm-3.638 8.801C8.073 16.947 7 21.251 7 23.5v.5h16v-.5c0-2.236-1.144-6.516-4.456-9.673l-.69.723c2.85 2.718 3.97 6.338 4.127 8.45H8.018c.147-2.135 1.216-5.769 4.11-8.468l-.683-.73z"/></symbol><symbol viewBox="0 0 20 20" id="symbol_search" xmlns="http://www.w3.org/2000/svg"><path d="M0 510h1440v512H0zM11.505 11.636a4.75 4.75 0 1 1 .469-.427l3.767 3.767-.448.448-3.788-3.788zm1.162-3.72a4.117 4.117 0 1 0-8.234 0 4.117 4.117 0 0 0 8.234 0z"/></symbol><symbol viewBox="0 0 152 17" id="symbol_stas" xmlns="http://www.w3.org/2000/svg"><path d="M0 14.186l2.043-3.34c.93.975 2.346 1.624 3.855 1.624.813 0 1.417-.347 1.417-.928 0-1.715-6.85-.811-6.85-6.33C.464 2.707 2.414.25 6.223.25c2.043 0 3.901.626 5.27 1.785L9.499 5.281A5.377 5.377 0 0 0 6.06 4.03c-.813 0-1.115.37-1.115.834 0 1.623 6.804 1.02 6.804 6.238 0 3.154-2.229 5.148-5.829 5.148-2.67 0-4.528-.765-5.921-2.064M15.616 16V4.523H12.5V.75H23v3.773h-3.094V16zM28.761 5.208l-1.127 5.053h2.232L28.76 5.208zM31.128 16l-.428-1.967h-3.9L26.37 16h-4.62L26.168.75h5.163L35.75 16h-4.622zM36 14.186l2.044-3.34c.928.975 2.345 1.624 3.854 1.624.813 0 1.417-.347 1.417-.928 0-1.715-6.85-.811-6.85-6.33 0-2.505 1.95-4.962 5.758-4.962 2.044 0 3.902.626 5.272 1.785l-1.997 3.246A5.377 5.377 0 0 0 42.06 4.03c-.812 0-1.115.37-1.115.834 0 1.623 6.804 1.02 6.804 6.238 0 3.154-2.23 5.148-5.829 5.148-2.67 0-4.528-.765-5.921-2.064M56.978 16V9.895L52.25.75h4.728l2.17 5.213L61.295.75H66l-4.682 9.145V16zM70.761 5.208l-1.127 5.053h2.232L70.76 5.208zM73.128 16l-.428-1.967h-3.9L68.37 16h-4.62L68.168.75h5.164L77.75 16h-4.622zm13.38-10.106c0-.914-.644-1.371-1.427-1.371h-1.728v2.766h1.728c.783 0 1.427-.48 1.427-1.395zM86.186 16l-1.727-4.939h-1.106V16H79V.75h6.772c3.178 0 5.159 2.264 5.159 5.075 0 2.561-1.29 3.865-2.303 4.436L91 16h-4.814zm6.064-5.594V.75h4.31v9.679c0 1.255.676 2.031 1.94 2.031 1.264 0 1.94-.776 1.94-2.031V.75h4.31v9.633c0 3.698-2.46 5.867-6.25 5.867-3.768 0-6.25-2.169-6.25-5.844m13.25 3.78l2.043-3.34c.93.975 2.346 1.624 3.855 1.624.813 0 1.417-.347 1.417-.928 0-1.715-6.85-.811-6.85-6.33 0-2.505 1.95-4.962 5.758-4.962 2.044 0 3.902.626 5.272 1.785l-1.998 3.246a5.374 5.374 0 0 0-3.436-1.251c-.812 0-1.115.37-1.115.834 0 1.623 6.804 1.02 6.804 6.238 0 3.154-2.23 5.148-5.829 5.148-2.67 0-4.528-.765-5.921-2.064M126.423 16v-5.968h-3.846V16h-4.327V.75h4.327v5.51h3.846V.75h4.327V16zm6.327 0h4.5V.75h-4.5zm14.395 0l-4.06-7.042V16h-4.335V.75h4.404l3.761 6.585V.75h4.335V16z"/></symbol><symbol viewBox="0 0 21 22" id="symbol_trash" xmlns="http://www.w3.org/2000/svg"><path d="M10.5 18c.276 0 .5-.14.5-.314V7.314C11 7.14 10.776 7 10.5 7s-.5.14-.5.314v10.372c0 .174.224.314.5.314zm-3 0c.276 0 .5-.14.5-.314V7.314C8 7.14 7.776 7 7.5 7s-.5.14-.5.314v10.372c0 .174.224.314.5.314zm6 0c.276 0 .5-.14.5-.314V7.314C14 7.14 13.776 7 13.5 7s-.5.14-.5.314v10.372c0 .174.224.314.5.314z"/><path d="M19.058 3h-5.054c-.044-.487-.155-1.97-.677-2.498A1.689 1.689 0 0 0 12.083 0H8.125c-.496 0-.914.17-1.245.502C6.36 1.03 6.044 2.512 6 3H0v1h2.037l.925 16.059C2.976 20.73 3.4 22 4.905 22h11.19c1.504 0 1.929-1.27 1.943-1.933L18.968 4H21V3h-1.942zM7.468 1.285a.772.772 0 0 1 .644-.327h3.775c.265 0 .476.107.645.327.304.394.426 1.213.468 1.715H7c.042-.502.164-1.321.468-1.715zm9.775 18.706c-.002.107-.057 1.05-1.15 1.05H4.908c-1.082 0-1.147-.944-1.151-1.057L3 4h15l-.757 15.991z"/></symbol><symbol viewBox="0 0 18 15" id="symbol_twitter" xmlns="http://www.w3.org/2000/svg"><path d="M18 1.776a7.23 7.23 0 0 1-2.121.596A3.778 3.778 0 0 0 17.503.277a7.288 7.288 0 0 1-2.345.919A3.645 3.645 0 0 0 12.462 0c-2.384 0-4.136 2.281-3.598 4.649-3.068-.158-5.789-1.665-7.61-3.956C.285 2.395.75 4.62 2.394 5.749a3.608 3.608 0 0 1-1.671-.474c-.04 1.754 1.185 3.396 2.962 3.76a3.612 3.612 0 0 1-1.668.065c.469 1.505 1.833 2.6 3.45 2.63A7.294 7.294 0 0 1 0 13.299 10.267 10.267 0 0 0 5.661 15c6.857 0 10.73-5.938 10.496-11.264A7.627 7.627 0 0 0 18 1.776z"/></symbol><symbol viewBox="0 0 14 8" id="symbol_ver-arrow" xmlns="http://www.w3.org/2000/svg"><path d="M0 1.51L1.65 0l5.352 4.98L12.35 0 14 1.51 7.002 8z"/></symbol><symbol viewBox="0 0 18 11" id="symbol_vk" xmlns="http://www.w3.org/2000/svg"><path d="M9.871 10.995c.457 0 .644-.319.638-.719-.023-1.506.536-2.317 1.544-1.26 1.116 1.17 1.347 1.98 2.703 1.98h2.4c.606 0 .844-.205.844-.526 0-.678-1.066-1.874-1.969-2.753-1.264-1.23-1.323-1.259-.234-2.739C17.147 3.14 18.914.786 17.35.786h-2.985c-.58 0-.621.341-.828.85-.746 1.845-2.164 4.233-2.702 3.868-.564-.381-.306-1.89-.263-4.134.011-.592.008-.998-.856-1.209A5.79 5.79 0 0 0 8.361 0C6.656 0 5.48.749 6.148.88c1.178.23 1.065 2.9.79 4.053-.478 2.009-2.276-1.59-3.025-3.382-.181-.43-.237-.765-.882-.765H.591C.22.786 0 .91 0 1.19c0 .473 2.22 5.28 4.34 7.676 2.066 2.338 4.11 2.128 5.531 2.128z"/></symbol><symbol viewBox="0 0 24 24" id="symbol_vk-round" xmlns="http://www.w3.org/2000/svg"><path d="M12 0C5.373 0 0 5.373 0 12s5.373 12 12 12 12-5.373 12-12S18.627 0 12 0zm6.344 16.163h-1.867c-1.055 0-1.232-.601-2.102-1.469-.785-.785-1.22-.183-1.202.935.006.297-.141.534-.495.534-1.105 0-2.694.156-4.304-1.58C6.727 12.804 5 9.235 5 8.884c0-.208.172-.301.459-.301h1.898c.503 0 .545.249.686.568.584 1.331 1.981 4.002 2.354 2.511.214-.856.301-2.839-.615-3.01-.52-.096.396-.652 1.722-.652.33 0 .688.035 1.054.12.673.156.676.458.666.898-.034 1.666-.235 2.786.204 3.069.419.271 1.521-1.502 2.104-2.871.159-.378.191-.632.643-.632h2.322c1.216 0-.159 1.748-1.21 3.112-.847 1.099-.802 1.12.183 2.034.701.651 1.53 1.54 1.53 2.043 0 .238-.186.39-.656.39z" fill-rule="evenodd"/></symbol><symbol viewBox="0 0 24 24" id="symbol_youtube-round" xmlns="http://www.w3.org/2000/svg"><path d="M12 0C5.373 0 0 5.373 0 12s5.373 12 12 12 12-5.373 12-12S18.627 0 12 0zm4.441 16.892c-2.102.144-6.784.144-8.883 0C5.282 16.736 5.017 15.622 5 12c.017-3.629.285-4.736 2.558-4.892 2.099-.144 6.782-.144 8.883 0C18.718 7.264 18.982 8.378 19 12c-.018 3.629-.285 4.736-2.559 4.892zM10 9.658l4.917 2.338L10 14.342V9.658z" fill-rule="evenodd"/></symbol></svg>