<?xml version="1.0" encoding="utf-8"?>
<!-- Generator: Adobe Illustrator 21.1.0, SVG Export Plug-In . SVG Version: 6.00 Build 0)  -->
<svg version="1.1" id="Слой_1" xmlns="http://www.w3.org/2000/svg" xmlns:xlink="http://www.w3.org/1999/xlink" x="0px" y="0px"
	 viewBox="0 0 192.3 17" style="enable-background:new 0 0 192.3 17;" xml:space="preserve">
<g>
	<path d="M49.7,16.7V0.3h12.5v4.3h-7.5v1.6H62v4.3h-7.3v1.8h7.5v4.3H49.7z"/>
	<path d="M6.2,16.7v-6.5L0,0.3h5.6l3.1,5.5l3-5.5h5.6l-6.1,9.9v6.5H6.2z"/>
	<path d="M17.6,11.3V7h9.2v4.3H17.6z"/>
	<path d="M30.4,8.5c0-5.3,4.1-8.5,9-8.5c3.9,0,6.2,2.2,7.2,4.3l-4.2,2.1c-0.5-1-1.6-2-3-2c-2.4,0-4,1.8-4,4.1c0,2.3,1.6,4.1,4,4.1
		c0.9,0,2-0.3,2.6-0.7v-0.6H39V6.9h8v6.7c-1.8,2-4.3,3.3-7.5,3.3C34.5,17,30.4,13.7,30.4,8.5z"/>
	<path d="M75.9,16.7l-6.1-8.3v8.3h-5V0.3H70l5.7,7.8V0.3h5v16.4H75.9z"/>
	<path d="M83.3,16.7V0.3h12.5v4.3h-7.5v1.6h7.3v4.3h-7.3v1.8h7.5v4.3H83.3z"/>
	<path d="M107.6,16.7l-2.3-5.2h-1.8v5.2h-5V0.3h8.8c3.8,0,5.9,2.6,5.9,5.6c0,2.8-1.7,4.3-3,5l3,5.8H107.6z M108.2,5.9
		c0-0.9-0.8-1.3-1.6-1.3h-3v2.6h3C107.4,7.2,108.2,6.8,108.2,5.9z"/>
	<path d="M127.2,16.7l-0.6-1.9h-5.9l-0.6,1.9h-5.6l6.1-16.4h6.3l6.1,16.4H127.2z M123.6,5.1l-1.6,5.3h3.3L123.6,5.1z"/>
	<path d="M136.2,16.7V4.6h-4.4V0.3h13.8v4.3h-4.4v12.1H136.2z"/>
	<path d="M147.9,16.7V0.3h5v16.4H147.9z"/>
	<path d="M155.1,8.5c0-5.1,3.9-8.5,9-8.5c5.1,0,9,3.4,9,8.5c0,5.1-3.9,8.5-9,8.5C159,17,155.1,13.6,155.1,8.5z M168,8.5
		c0-2.3-1.6-4.1-3.9-4.1s-3.9,1.8-3.9,4.1c0,2.3,1.6,4.1,3.9,4.1S168,10.8,168,8.5z"/>
	<path d="M186.4,16.7l-6.1-8.3v8.3h-5V0.3h5.1l5.7,7.8V0.3h5v16.4H186.4z"/>
</g>
</svg>
